<svg width="32" height="33" viewBox="0 0 32 33" fill="none" xmlns="http://www.w3.org/2000/svg">
<g clip-path="url(#clip0_42_204)">
<path d="M32 16.1118C32 7.27534 24.8365 0.111816 16 0.111816C7.16352 0.111816 0 7.27534 0 16.1118C0 23.6152 5.16608 29.9115 12.135 31.6408V21.0014H8.83584V16.1118H12.135V14.0049C12.135 8.55918 14.5997 6.03502 19.9462 6.03502C20.96 6.03502 22.7091 6.23406 23.4246 6.43246V10.8645C23.047 10.8248 22.391 10.8049 21.5763 10.8049C18.953 10.8049 17.9392 11.7989 17.9392 14.3825V16.1118H23.1654L22.2675 21.0014H17.9392V31.9947C25.8618 31.0379 32.0006 24.2923 32.0006 16.1118H32Z" fill="#0866FF"/>
<path d="M22.2669 21.0014L23.1648 16.1118H17.9386V14.3826C17.9386 11.7989 18.9523 10.805 21.5757 10.805C22.3904 10.805 23.0464 10.8248 23.424 10.8645V6.43247C22.7085 6.23343 20.9594 6.03503 19.9456 6.03503C14.599 6.03503 12.1344 8.55919 12.1344 14.005V16.1118H8.8352V21.0014H12.1344V31.6408C13.3722 31.948 14.6669 32.1118 15.9994 32.1118C16.6554 32.1118 17.3024 32.0715 17.9379 31.9947V21.0014H22.2662H22.2669Z" fill="white"/>
</g>
<defs>
<clipPath id="clip0_42_204">
<rect width="32" height="32" fill="white" transform="translate(0 0.111816)"/>
</clipPath>
</defs>
</svg>
