<svg width="32" height="33" viewBox="0 0 32 33" fill="none" xmlns="http://www.w3.org/2000/svg">
<g clip-path="url(#clip0_42_220)">
<path fill-rule="evenodd" clip-rule="evenodd" d="M16.0132 0.111816C7.15833 0.111816 0 7.32292 0 16.244C0 23.3752 4.58659 29.4115 10.9494 31.548C11.7449 31.7086 12.0363 31.2009 12.0363 30.7738C12.0363 30.3998 12.0101 29.1178 12.0101 27.7821C7.5556 28.7438 6.62799 25.8591 6.62799 25.8591C5.91212 23.9894 4.85143 23.5089 4.85143 23.5089C3.39348 22.5206 4.95763 22.5206 4.95763 22.5206C6.57489 22.6275 7.4235 24.1766 7.4235 24.1766C8.85491 26.6336 11.1615 25.9394 12.0894 25.5119C12.2218 24.4703 12.6463 23.7492 13.097 23.3486C9.54422 22.9746 5.80625 21.5858 5.80625 15.3892C5.80625 13.6264 6.44214 12.1842 7.44973 11.0625C7.29075 10.662 6.73386 9.00573 7.60903 6.78897C7.60903 6.78897 8.96111 6.36155 12.0098 8.4449C13.315 8.09178 14.6611 7.91214 16.0132 7.91062C17.3653 7.91062 18.7436 8.09779 20.0164 8.4449C23.0654 6.36155 24.4175 6.78897 24.4175 6.78897C25.2926 9.00573 24.7354 10.662 24.5764 11.0625C25.6106 12.1842 26.2202 13.6264 26.2202 15.3892C26.2202 21.5858 22.4823 22.9477 18.9029 23.3486C19.4864 23.856 19.9898 24.8174 19.9898 26.3399C19.9898 28.5032 19.9636 30.2395 19.9636 30.7734C19.9636 31.2009 20.2553 31.7086 21.0505 31.5483C27.4133 29.4112 31.9999 23.3752 31.9999 16.244C32.0261 7.32292 24.8416 0.111816 16.0132 0.111816Z" fill="#24292F"/>
</g>
<defs>
<clipPath id="clip0_42_220">
<rect width="32" height="32" fill="white" transform="translate(0 0.111816)"/>
</clipPath>
</defs>
</svg>
