<svg width="32" height="33" viewBox="0 0 32 33" fill="none" xmlns="http://www.w3.org/2000/svg">
<g clip-path="url(#clip0_42_213)">
<path d="M15.9998 13.2026V19.399H24.6106C24.2325 21.3917 23.0978 23.0791 21.3961 24.2136L26.5888 28.2427C29.6142 25.4501 31.3597 21.3482 31.3597 16.4755C31.3597 15.341 31.2579 14.25 31.0687 13.2028L15.9998 13.2026Z" fill="#4285F4"/>
<path d="M7.03291 19.1572L5.86176 20.0537L1.71623 23.2828C4.34895 28.5045 9.74492 32.1119 15.9994 32.1119C20.3193 32.1119 23.9411 30.6864 26.5884 28.2428L21.3957 24.2137C19.9702 25.1737 18.1521 25.7556 15.9994 25.7556C11.8394 25.7556 8.30499 22.9483 7.03945 19.1665L7.03291 19.1572Z" fill="#34A853"/>
<path d="M1.71624 8.94092C0.625389 11.0936 0 13.5227 0 16.1117C0 18.7008 0.625389 21.1299 1.71624 23.2825C1.71624 23.297 7.03997 19.1516 7.03997 19.1516C6.71997 18.1916 6.53082 17.1735 6.53082 16.1116C6.53082 15.0496 6.71997 14.0315 7.03997 13.0715L1.71624 8.94092Z" fill="#FBBC05"/>
<path d="M15.9997 6.48272C18.3561 6.48272 20.4506 7.29724 22.1234 8.86818L26.7051 4.28642C23.927 1.69737 20.3198 0.111816 15.9997 0.111816C9.74524 0.111816 4.34895 3.70454 1.71623 8.94092L7.0398 13.0718C8.30518 9.28997 11.8398 6.48272 15.9997 6.48272Z" fill="#EA4335"/>
</g>
<defs>
<clipPath id="clip0_42_213">
<rect width="32" height="32" fill="white" transform="translate(0 0.111816)"/>
</clipPath>
</defs>
</svg>
