<svg width="32" height="33" viewBox="0 0 32 33" fill="none" xmlns="http://www.w3.org/2000/svg">
<g clip-path="url(#clip0_42_208)">
<path d="M16 2.99307C20.275 2.99307 20.7813 3.01182 22.4625 3.08682C24.025 3.15557 24.8688 3.41807 25.4313 3.63682C26.175 3.92432 26.7125 4.27432 27.2688 4.83057C27.8313 5.39307 28.175 5.92432 28.4625 6.66807C28.6813 7.23057 28.9438 8.08057 29.0125 9.63682C29.0875 11.3243 29.1063 11.8306 29.1063 16.0993C29.1063 20.3743 29.0875 20.8806 29.0125 22.5618C28.9438 24.1243 28.6813 24.9681 28.4625 25.5306C28.175 26.2743 27.825 26.8118 27.2688 27.3681C26.7063 27.9306 26.175 28.2743 25.4313 28.5618C24.8688 28.7806 24.0188 29.0431 22.4625 29.1118C20.775 29.1868 20.2688 29.2056 16 29.2056C11.725 29.2056 11.2188 29.1868 9.5375 29.1118C7.975 29.0431 7.13125 28.7806 6.56875 28.5618C5.825 28.2743 5.2875 27.9243 4.73125 27.3681C4.16875 26.8056 3.825 26.2743 3.5375 25.5306C3.31875 24.9681 3.05625 24.1181 2.9875 22.5618C2.9125 20.8743 2.89375 20.3681 2.89375 16.0993C2.89375 11.8243 2.9125 11.3181 2.9875 9.63682C3.05625 8.07432 3.31875 7.23057 3.5375 6.66807C3.825 5.92432 4.175 5.38682 4.73125 4.83057C5.29375 4.26807 5.825 3.92432 6.56875 3.63682C7.13125 3.41807 7.98125 3.15557 9.5375 3.08682C11.2188 3.01182 11.725 2.99307 16 2.99307ZM16 0.111816C11.6563 0.111816 11.1125 0.130566 9.40625 0.205566C7.70625 0.280566 6.5375 0.555566 5.525 0.949316C4.46875 1.36182 3.575 1.90557 2.6875 2.79932C1.79375 3.68682 1.25 4.58057 0.8375 5.63057C0.44375 6.64932 0.16875 7.81182 0.09375 9.51182C0.01875 11.2243 0 11.7681 0 16.1118C0 20.4556 0.01875 20.9993 0.09375 22.7056C0.16875 24.4056 0.44375 25.5743 0.8375 26.5868C1.25 27.6431 1.79375 28.5368 2.6875 29.4243C3.575 30.3118 4.46875 30.8618 5.51875 31.2681C6.5375 31.6618 7.7 31.9368 9.4 32.0118C11.1063 32.0868 11.65 32.1056 15.9938 32.1056C20.3375 32.1056 20.8813 32.0868 22.5875 32.0118C24.2875 31.9368 25.4563 31.6618 26.4688 31.2681C27.5188 30.8618 28.4125 30.3118 29.3 29.4243C30.1875 28.5368 30.7375 27.6431 31.1438 26.5931C31.5375 25.5743 31.8125 24.4118 31.8875 22.7118C31.9625 21.0056 31.9813 20.4618 31.9813 16.1181C31.9813 11.7743 31.9625 11.2306 31.8875 9.52432C31.8125 7.82432 31.5375 6.65557 31.1438 5.64307C30.75 4.58057 30.2063 3.68682 29.3125 2.79932C28.425 1.91182 27.5313 1.36182 26.4813 0.955566C25.4625 0.561816 24.3 0.286816 22.6 0.211816C20.8875 0.130566 20.3438 0.111816 16 0.111816Z" fill="#000100"/>
<path d="M16 7.89307C11.4625 7.89307 7.78125 11.5743 7.78125 16.1118C7.78125 20.6493 11.4625 24.3306 16 24.3306C20.5375 24.3306 24.2188 20.6493 24.2188 16.1118C24.2188 11.5743 20.5375 7.89307 16 7.89307ZM16 21.4431C13.0563 21.4431 10.6687 19.0556 10.6687 16.1118C10.6687 13.1681 13.0563 10.7806 16 10.7806C18.9438 10.7806 21.3312 13.1681 21.3312 16.1118C21.3312 19.0556 18.9438 21.4431 16 21.4431Z" fill="#000100"/>
<path d="M26.4625 7.56805C26.4625 8.63055 25.6 9.4868 24.5438 9.4868C23.4813 9.4868 22.625 8.6243 22.625 7.56805C22.625 6.50554 23.4875 5.64929 24.5438 5.64929C25.6 5.64929 26.4625 6.51179 26.4625 7.56805Z" fill="#000100"/>
</g>
<defs>
<clipPath id="clip0_42_208">
<rect width="32" height="32" fill="white" transform="translate(0 0.111816)"/>
</clipPath>
</defs>
</svg>
