<svg width="32" height="33" viewBox="0 0 32 33" fill="none" xmlns="http://www.w3.org/2000/svg">
<g clip-path="url(#clip0_42_223)">
<path d="M31.3627 8.35911C31.1817 7.67833 30.8252 7.05701 30.3287 6.55732C29.8322 6.05763 29.2132 5.69711 28.5336 5.51184C26.0317 4.83911 16.0317 4.83911 16.0317 4.83911C16.0317 4.83911 6.03174 4.83911 3.52992 5.51184C2.85031 5.69711 2.23128 6.05763 1.73479 6.55732C1.23829 7.05701 0.881746 7.67833 0.700829 8.35911C0.0317384 10.8718 0.0317383 16.1118 0.0317383 16.1118C0.0317383 16.1118 0.0317384 21.3518 0.700829 23.8646C0.881746 24.5453 1.23829 25.1667 1.73479 25.6664C2.23128 26.166 2.85031 26.5266 3.52992 26.7118C6.03174 27.3846 16.0317 27.3846 16.0317 27.3846C16.0317 27.3846 26.0317 27.3846 28.5336 26.7118C29.2132 26.5266 29.8322 26.166 30.3287 25.6664C30.8252 25.1667 31.1817 24.5453 31.3627 23.8646C32.0317 21.3518 32.0317 16.1118 32.0317 16.1118C32.0317 16.1118 32.0317 10.8718 31.3627 8.35911Z" fill="#FF0302"/>
<path d="M12.759 20.87V11.3536L21.1227 16.1118L12.759 20.87Z" fill="#FEFEFE"/>
</g>
<defs>
<clipPath id="clip0_42_223">
<rect width="32" height="32" fill="white" transform="translate(0 0.111816)"/>
</clipPath>
</defs>
</svg>
